<?xml version="1.0" standalone="no"?><!DOCTYPE svg PUBLIC "-//W3C//DTD SVG 1.1//EN" "http://www.w3.org/Graphics/SVG/1.1/DTD/svg11.dtd"><svg t="1503726257753" class="icon" style="" viewBox="0 0 1024 1024" version="1.1" xmlns="http://www.w3.org/2000/svg" p-id="7052" xmlns:xlink="http://www.w3.org/1999/xlink" width="48" height="48"><defs><style type="text/css"></style></defs><path d="M874.576 261.102c-14.141-14.863-33.442-23.017-54.601-23.017h-478.3c-15.173 0-27.662 11.56-27.662 25.701s12.386 25.701 27.662 25.701h478.197c5.161 0 9.702 1.858 13.315 5.574 5.47 5.78 8.051 15.276 7.019 23.946l-43.557 231.615c-1.548 11.457-13.108 21.469-26.836 21.572l-374.672 25.701c-15.069 1.135-26.526 13.315-25.494 27.559 1.032 13.521 13.212 23.843 27.559 23.843 0.619 0 1.445 0 2.168-0.206l372.711-25.494c39.841 0 74.728-29.21 79.476-65.232l43.557-231.615c2.993-24.875-4.335-48.614-20.54-65.645z" p-id="7053"></path><path d="M811.202 700.697h-448.677c-11.663 0-23.327-10.012-24.875-21.985l-47.066-308.098-26.526-142.85c-4.851-37.364-40.254-66.677-80.508-66.677h-35.196c-15.173 0-27.662 11.56-27.662 25.701s12.386 25.701 27.662 25.701h35.196c11.973 0 24.256 10.115 25.907 22.707l26.63 143.469 46.86 306.859c4.851 37.364 39.841 66.677 79.682 66.677h448.574c15.379 0 27.662-11.56 27.662-25.701 0-14.347-12.283-25.804-27.662-25.804z" p-id="7054"></path><path d="M320 829.2c0 0 0 0 0 0 0 27.476 22.274 49.75 49.75 49.75 27.476 0 49.75-22.274 49.75-49.75 0 0 0 0 0 0 0 0 0 0 0 0 0-27.476-22.274-49.75-49.75-49.75-27.476 0-49.75 22.274-49.75 49.75s0 0 0 0z" p-id="7055"></path><path d="M706.748 829.2c0 0 0 0 0 0 0 27.476 22.274 49.75 49.75 49.75 27.476 0 49.75-22.274 49.75-49.75 0 0 0 0 0 0 0 0 0 0 0 0 0-27.476-22.274-49.75-49.75-49.75-27.476 0-49.75 22.274-49.75 49.75s0 0 0 0z" p-id="7056"></path></svg>