<?xml version="1.0" standalone="no"?><!DOCTYPE svg PUBLIC "-//W3C//DTD SVG 1.1//EN" "http://www.w3.org/Graphics/SVG/1.1/DTD/svg11.dtd"><svg t="1503723415867" class="icon" style="" viewBox="0 0 1024 1024" version="1.1" xmlns="http://www.w3.org/2000/svg" p-id="6074" xmlns:xlink="http://www.w3.org/1999/xlink" width="48" height="48"><defs><style type="text/css"></style></defs><path d="M809.7792 906.6496h-203.3664c-10.4448 0-18.8416-8.3968-18.8416-18.8416V644.5056h-150.9376v243.3024c0 10.4448-8.3968 18.8416-18.8416 18.8416h-203.3664c-10.4448 0-18.8416-8.3968-18.8416-18.8416V531.0464H86.6304c-7.7824 0-14.9504-4.9152-17.6128-12.0832-2.8672-7.3728-0.8192-15.5648 5.12-20.8896L495.0016 126.7712c2.048-3.4816 5.12-6.3488 9.216-7.9872 2.4576-1.024 5.3248-1.6384 7.9872-1.4336 2.6624 0 5.3248 0.4096 7.9872 1.4336 3.8912 1.6384 7.168 4.5056 9.216 7.9872l420.6592 371.3024c5.9392 5.12 7.9872 13.5168 5.12 20.8896-2.8672 7.3728-9.8304 12.0832-17.6128 12.0832h-108.7488v356.7616c-0.2048 10.4448-8.6016 18.8416-19.0464 18.8416z m-184.5248-37.6832h165.6832V512.2048c0-10.4448 8.3968-18.8416 18.8416-18.8416h77.6192L512 161.9968 136.6016 493.3632h77.6192c10.4448 0 18.8416 8.3968 18.8416 18.8416v356.7616h165.6832V625.664c0-10.4448 8.3968-18.8416 18.8416-18.8416H606.208c10.4448 0 18.8416 8.3968 18.8416 18.8416v243.3024z" p-id="6075" fill="#d81e06"></path></svg>